<svg id="Calque_1" data-name="Calque 1" xmlns="http://www.w3.org/2000/svg" viewBox="0 0 211.58 211.58"><defs><style>.cls-1{fill:#fff;}.cls-2{fill:#2c2c82;}.cls-3{fill:none;stroke:#000;stroke-linecap:round;stroke-linejoin:round;stroke-width:6px;}</style></defs><title>avatar_camille</title><path class="cls-1" d="M105.82,203.19A97.29,97.29,0,1,1,203.1,105.9a97.4,97.4,0,0,1-97.29,97.29" transform="translate(-0.03 -0.11)"/><path class="cls-2" d="M105.82,17.11A88.79,88.79,0,1,1,17,105.9a88.79,88.79,0,0,1,88.79-88.79m0-17A105.79,105.79,0,1,0,211.6,105.9,105.91,105.91,0,0,0,105.82.11" transform="translate(-0.03 -0.11)"/><path class="cls-2" d="M66,132.58a16.83,16.83,0,1,1-16.83-16.83A16.83,16.83,0,0,1,66,132.58" transform="translate(-0.03 -0.11)"/><path class="cls-2" d="M182,132.58a16.83,16.83,0,1,1-16.83-16.83A16.83,16.83,0,0,1,182,132.58" transform="translate(-0.03 -0.11)"/><path d="M56.81,113.64a19.73,19.73,0,1,0-7.32-11l19.13-4.82Z" transform="translate(-0.03 -0.11)"/><path d="M140.06,114.4a19.73,19.73,0,1,0-7.32-11l19.13-4.82Z" transform="translate(-0.03 -0.11)"/><path d="M65.14,53.37c13.71,0,24.82,13.9,24.82,31s-11.11,31-24.82,31-24.82-13.9-24.82-31,11.11-31,24.82-31m0-6c-17,0-30.82,16.62-30.82,37s13.83,37,30.82,37S96,104.83,96,84.41s-13.83-37-30.82-37" transform="translate(-0.03 -0.11)"/><path class="cls-3" d="M96.89,153.34s22.37,12.54,35.26-11.18" transform="translate(-0.03 -0.11)"/><path d="M147.28,54.13c13.71,0,24.82,13.9,24.82,31s-11.11,31-24.82,31-24.82-13.9-24.82-31,11.11-31,24.82-31m0-6c-17,0-30.82,16.62-30.82,37s13.83,37,30.82,37,30.82-16.61,30.82-37-13.83-37-30.82-37" transform="translate(-0.03 -0.11)"/><polygon class="cls-1" points="42.24 87.57 86.99 87.57 77.31 69.13 46.18 73.44 42.24 87.57"/><polygon class="cls-1" points="128.87 88.44 170.49 89.19 154.55 64.44 136.55 73.82 128.87 88.44"/><line class="cls-1" x1="38.61" y1="86.82" x2="91.61" y2="86.82"/><line class="cls-3" x1="38.61" y1="86.82" x2="91.61" y2="86.82"/><line class="cls-3" x1="120.76" y1="87.57" x2="172.75" y2="87.57"/></svg>