<svg xmlns="http://www.w3.org/2000/svg" x="0px" y="0px" viewBox="0 0 185.3 46.8" style="vertical-align: middle; max-width: 100%; width: 100%;" width="100%"><g>
	<g>
		<g>
			<path d="M178.2,32.7c3.9,0,7.1,3.2,7.1,7.1c0,3.9-3.2,7.1-7.1,7.1c-3.9,0-7.1-3.2-7.1-7.1     C171.2,35.8,174.4,32.7,178.2,32.7z M178.2,44.2c2.5,0,4.5-2,4.5-4.5c0-2.5-2-4.5-4.5-4.5c-2.5,0-4.5,2-4.5,4.5     C173.8,42.2,175.8,44.2,178.2,44.2z" fill="rgb(180,165,130)"></path>
		</g>
	</g>
	<g>
		<g>
			<path d="M149.7,32.7c3.9,0,7.1,3.2,7.1,7.1c0,3.9-3.2,7.1-7.1,7.1c-3.9,0-7.1-3.2-7.1-7.1     C142.7,35.8,145.8,32.7,149.7,32.7z M149.7,44.2c2.5,0,4.5-2,4.5-4.5c0-2.5-2-4.5-4.5-4.5c-2.5,0-4.5,2-4.5,4.5     C145.2,42.2,147.3,44.2,149.7,44.2z" fill="rgb(180,165,130)"></path>
		</g>
	</g>
	<g>
		<g>
			<path d="M121.2,32.7c3.9,0,7.1,3.2,7.1,7.1c0,3.9-3.2,7.1-7.1,7.1c-3.9,0-7.1-3.2-7.1-7.1     C114.1,35.8,117.3,32.7,121.2,32.7z M121.2,44.2c2.5,0,4.5-2,4.5-4.5c0-2.5-2-4.5-4.5-4.5c-2.5,0-4.5,2-4.5,4.5     C116.7,42.2,118.7,44.2,121.2,44.2z" fill="rgb(180,165,130)"></path>
		</g>
	</g>
	<g>
		<g>
			<path d="M92.7,32.7c3.9,0,7.1,3.2,7.1,7.1c0,3.9-3.2,7.1-7.1,7.1c-3.9,0-7.1-3.2-7.1-7.1     C85.6,35.8,88.8,32.7,92.7,32.7z M92.7,44.2c2.5,0,4.5-2,4.5-4.5c0-2.5-2-4.5-4.5-4.5c-2.5,0-4.5,2-4.5,4.5     C88.2,42.2,90.2,44.2,92.7,44.2z" fill="rgb(180,165,130)"></path>
		</g>
	</g>
	<g>
		<g>
			<path d="M64.1,32.7c3.9,0,7.1,3.2,7.1,7.1c0,3.9-3.2,7.1-7.1,7.1c-3.9,0-7.1-3.2-7.1-7.1     C57.1,35.8,60.2,32.7,64.1,32.7z M64.1,44.2c2.5,0,4.5-2,4.5-4.5c0-2.5-2-4.5-4.5-4.5c-2.5,0-4.5,2-4.5,4.5     C59.7,42.2,61.7,44.2,64.1,44.2z" fill="rgb(180,165,130)"></path>
		</g>
	</g>
	<g>
		<g>
			<path d="M35.6,32.7c3.9,0,7.1,3.2,7.1,7.1c0,3.9-3.2,7.1-7.1,7.1c-3.9,0-7.1-3.2-7.1-7.1     C28.5,35.8,31.7,32.7,35.6,32.7z M35.6,44.2c2.5,0,4.5-2,4.5-4.5c0-2.5-2-4.5-4.5-4.5s-4.5,2-4.5,4.5     C31.1,42.2,33.1,44.2,35.6,44.2z" fill="rgb(180,165,130)"></path>
		</g>
	</g>
	<g>
		<g>
			<path d="M7.1,32.7c3.9,0,7.1,3.2,7.1,7.1c0,3.9-3.2,7.1-7.1,7.1c-3.9,0-7.1-3.2-7.1-7.1     C0,35.8,3.2,32.7,7.1,32.7z M7.1,44.2c2.5,0,4.5-2,4.5-4.5c0-2.5-2-4.5-4.5-4.5s-4.5,2-4.5,4.5C2.6,42.2,4.6,44.2,7.1,44.2z" fill="rgb(180,165,130)"></path>
		</g>
	</g>
	<g>
		<g>
			<path d="M178.2,0c3.9,0,7.1,3.2,7.1,7.1c0,3.9-3.2,7.1-7.1,7.1c-3.9,0-7.1-3.2-7.1-7.1     C171.2,3.2,174.4,0,178.2,0z M178.2,11.6c2.5,0,4.5-2,4.5-4.5c0-2.5-2-4.5-4.5-4.5c-2.5,0-4.5,2-4.5,4.5     C173.8,9.5,175.8,11.6,178.2,11.6z" fill="rgb(180,165,130)"></path>
		</g>
	</g>
	<g>
		<g>
			<path d="M149.7,0c3.9,0,7.1,3.2,7.1,7.1c0,3.9-3.2,7.1-7.1,7.1c-3.9,0-7.1-3.2-7.1-7.1     C142.7,3.2,145.8,0,149.7,0z M149.7,11.6c2.5,0,4.5-2,4.5-4.5c0-2.5-2-4.5-4.5-4.5c-2.5,0-4.5,2-4.5,4.5     C145.2,9.5,147.3,11.6,149.7,11.6z" fill="rgb(180,165,130)"></path>
		</g>
	</g>
	<g>
		<g>
			<path d="M121.2,0c3.9,0,7.1,3.2,7.1,7.1c0,3.9-3.2,7.1-7.1,7.1c-3.9,0-7.1-3.2-7.1-7.1     C114.1,3.2,117.3,0,121.2,0z M121.2,11.6c2.5,0,4.5-2,4.5-4.5c0-2.5-2-4.5-4.5-4.5c-2.5,0-4.5,2-4.5,4.5     C116.7,9.5,118.7,11.6,121.2,11.6z" fill="rgb(180,165,130)"></path>
		</g>
	</g>
	<g>
		<g>
			<path d="M92.7,0c3.9,0,7.1,3.2,7.1,7.1c0,3.9-3.2,7.1-7.1,7.1c-3.9,0-7.1-3.2-7.1-7.1     C85.6,3.2,88.8,0,92.7,0z M92.7,11.6c2.5,0,4.5-2,4.5-4.5c0-2.5-2-4.5-4.5-4.5c-2.5,0-4.5,2-4.5,4.5     C88.2,9.5,90.2,11.6,92.7,11.6z" fill="rgb(180,165,130)"></path>
		</g>
	</g>
	<g>
		<g>
			<path d="M64.1,0c3.9,0,7.1,3.2,7.1,7.1c0,3.9-3.2,7.1-7.1,7.1c-3.9,0-7.1-3.2-7.1-7.1     C57.1,3.2,60.2,0,64.1,0z M64.1,11.6c2.5,0,4.5-2,4.5-4.5c0-2.5-2-4.5-4.5-4.5c-2.5,0-4.5,2-4.5,4.5     C59.7,9.5,61.7,11.6,64.1,11.6z" fill="rgb(180,165,130)"></path>
		</g>
	</g>
	<g>
		<g>
			<path d="M35.6,0c3.9,0,7.1,3.2,7.1,7.1c0,3.9-3.2,7.1-7.1,7.1c-3.9,0-7.1-3.2-7.1-7.1     C28.5,3.2,31.7,0,35.6,0z M35.6,11.6c2.5,0,4.5-2,4.5-4.5c0-2.5-2-4.5-4.5-4.5s-4.5,2-4.5,4.5C31.1,9.5,33.1,11.6,35.6,11.6z" fill="rgb(180,165,130)"></path>
		</g>
	</g>
	<g>
		<g>
			<path d="M7.1,0c3.9,0,7.1,3.2,7.1,7.1c0,3.9-3.2,7.1-7.1,7.1C3.2,14.2,0,11,0,7.1C0,3.2,3.2,0,7.1,0z      M7.1,11.6c2.5,0,4.5-2,4.5-4.5c0-2.5-2-4.5-4.5-4.5s-4.5,2-4.5,4.5C2.6,9.5,4.6,11.6,7.1,11.6z" fill="rgb(180,165,130)"></path>
		</g>
	</g>
</g></svg>